<svg width="16" height="13" viewBox="0 0 16 13" fill="none" xmlns="http://www.w3.org/2000/svg">
<path d="M8 9.5C9.6067 9.5 10.9092 8.15685 10.9092 6.5C10.9092 4.84315 9.6067 3.5 8 3.5C6.3933 3.5 5.09081 4.84315 5.09081 6.5C5.09081 8.15685 6.3933 9.5 8 9.5Z" fill="#9B9FAB"/>
<path fill-rule="evenodd" clip-rule="evenodd" d="M15.9412 6.20393C15.9413 6.20426 15.9415 6.20456 15.273 6.5C15.9415 6.79544 15.9413 6.79574 15.9412 6.79607L15.9401 6.79868L15.9379 6.80385L15.9311 6.81981C15.9254 6.83292 15.9176 6.85091 15.9075 6.87346C15.8873 6.91855 15.8581 6.98193 15.8198 7.061C15.7432 7.21901 15.6296 7.44035 15.4775 7.70393C15.174 8.22966 14.7125 8.93132 14.0786 9.63534C12.8111 11.0429 10.8133 12.5 8 12.5C5.18383 12.5 3.18534 11.0264 1.91888 9.60544C1.28524 8.8945 0.824079 8.18603 0.520875 7.65533C0.368859 7.38925 0.255407 7.16585 0.178892 7.00642C0.140607 6.92664 0.111486 6.86271 0.091335 6.81726C0.0812568 6.79452 0.0734142 6.7764 0.0677829 6.7632L0.0609885 6.74715L0.0588276 6.74197L0.058055 6.7401L0.0577456 6.73935C0.0576123 6.73903 0.0574874 6.73873 0.727035 6.44584C0.0596278 6.14781 0.0597564 6.1475 0.0598935 6.14718L0.0602105 6.14642L0.0609981 6.14456L0.0631897 6.13942L0.0700469 6.12354C0.0757206 6.11052 0.0836072 6.09267 0.0937306 6.0703C0.113973 6.02557 0.143189 5.96274 0.181576 5.88439C0.258296 5.72779 0.371977 5.50852 0.524248 5.24744C0.82798 4.72667 1.28973 4.03183 1.92397 3.33475C3.1924 1.94064 5.18959 0.5 8 0.5C10.8133 0.5 12.8111 1.9571 14.0786 3.36466C14.7125 4.06868 15.174 4.77034 15.4775 5.29607C15.6296 5.55965 15.7432 5.78099 15.8198 5.939C15.8581 6.01807 15.8873 6.08145 15.9075 6.12654C15.9176 6.14909 15.9254 6.16708 15.9311 6.18019L15.9379 6.19615L15.9401 6.20132L15.9412 6.20393ZM1.77413 6.89391C1.67489 6.7202 1.59557 6.56919 1.53568 6.44942C1.59507 6.33331 1.67327 6.1877 1.77076 6.02055C2.03523 5.5671 2.43714 4.96297 2.98476 4.3611C4.08004 3.15729 5.71933 2 8 2C10.2778 2 11.9164 3.1679 13.0127 4.38534C13.5606 4.99382 13.9628 5.60466 14.2275 6.0633C14.3259 6.23374 14.4047 6.38206 14.4643 6.5C14.4047 6.61794 14.3259 6.76626 14.2275 6.9367C13.9628 7.39534 13.5606 8.00618 13.0127 8.61466C11.9164 9.8321 10.2778 11 8 11C5.72509 11 4.0871 9.82151 2.98985 8.5904C2.44163 7.97531 2.03913 7.35774 1.77413 6.89391Z" fill="#9B9FAB"/>
<path d="M15.273 6.5L15.9412 6.20393C16.0196 6.39259 16.0196 6.60741 15.9412 6.79607L15.273 6.5Z" fill="#9B9FAB"/>
<path d="M0.0598935 6.14718L0.727035 6.44584L0.0577456 6.73935C-0.0199903 6.55038 -0.0192091 6.33555 0.0598935 6.14718Z" fill="#9B9FAB"/>
</svg>
