<svg width="11" height="14" viewBox="0 0 11 14" fill="none" xmlns="http://www.w3.org/2000/svg">
<path d="M2.65563 9.91569C2.41801 9.67807 2.54188 9.74507 1.96876 9.59167C1.70873 9.52194 1.48014 9.38796 1.27343 9.22746L0.0328659 12.2691C-0.0871708 12.5636 0.137043 12.8835 0.454772 12.8715L1.89549 12.8165L2.8864 13.8632C3.10515 14.094 3.48905 14.0221 3.60908 13.7276L5.0323 10.2381C4.7359 10.4032 4.40696 10.5 4.06681 10.5C3.53362 10.5 3.03269 10.2925 2.65563 9.91569ZM10.467 12.2691L9.22647 9.22746C9.01976 9.38824 8.79117 9.52194 8.53113 9.59167C7.95501 9.74589 8.08134 9.67862 7.84427 9.91569C7.46721 10.2925 6.96601 10.5 6.43282 10.5C6.09267 10.5 5.76373 10.4029 5.46733 10.2381L6.89054 13.7276C7.01058 14.0221 7.39475 14.094 7.61322 13.8632L8.60441 12.8165L10.0451 12.8715C10.3629 12.8835 10.5871 12.5633 10.467 12.2691ZM7.19132 9.29691C7.60912 8.87172 7.65697 8.90836 8.25196 8.74622C8.63176 8.64259 8.92871 8.34045 9.03042 7.95381C9.23495 7.17727 9.1819 7.27105 9.73998 6.70286C10.0181 6.41986 10.1266 6.00725 10.0249 5.62062C9.82064 4.84462 9.82037 4.9529 10.0249 4.17607C10.1266 3.78944 10.0181 3.37683 9.73998 3.09383C9.1819 2.52564 9.23495 2.61915 9.03042 1.84288C8.92871 1.45625 8.63176 1.1541 8.25196 1.05047C7.48963 0.842391 7.58151 0.896804 7.02288 0.328339C6.7448 0.0453367 6.3393 -0.0654032 5.95951 0.0382275C5.19745 0.246036 5.30382 0.246309 4.54039 0.0382275C4.1606 -0.0654032 3.7551 0.0450633 3.47702 0.328339C2.91894 0.896531 3.01081 0.842391 2.24821 1.05047C1.86842 1.1541 1.57147 1.45625 1.46975 1.84288C1.2655 2.61915 1.31827 2.52564 0.760195 3.09383C0.482115 3.37683 0.373289 3.78944 0.475279 4.17607C0.679533 4.95153 0.679806 4.84325 0.475279 5.62034C0.373562 6.00698 0.482115 6.41959 0.760195 6.70286C1.31827 7.27105 1.26522 7.17727 1.46975 7.95381C1.57147 8.34045 1.86842 8.64259 2.24821 8.74622C2.86015 8.91301 2.90582 8.88676 3.30858 9.29691C3.67033 9.66522 4.23388 9.73112 4.66863 9.45605C4.84248 9.34568 5.04416 9.28707 5.25009 9.28707C5.45601 9.28707 5.65769 9.34568 5.83154 9.45605C6.26602 9.73112 6.82957 9.66522 7.19132 9.29691ZM2.67039 4.81153C2.67039 3.36152 3.82537 2.18604 5.24995 2.18604C6.67453 2.18604 7.82951 3.36152 7.82951 4.81153C7.82951 6.26154 6.67453 7.43703 5.24995 7.43703C3.82537 7.43703 2.67039 6.26154 2.67039 4.81153Z" fill="#2681FF"/>
</svg>
