<svg width="8" height="14" viewBox="0 0 8 14" fill="none" xmlns="http://www.w3.org/2000/svg">
<path d="M5.71932 6.38203L2.76619 5.51797C2.42439 5.41953 2.1865 5.09961 2.1865 4.74414C2.1865 4.29844 2.54744 3.9375 2.99314 3.9375H4.80604C5.13963 3.9375 5.46775 4.03867 5.74119 4.22461C5.90799 4.33672 6.13221 4.30937 6.27439 4.16992L7.22596 3.24023C7.4201 3.05156 7.39275 2.73711 7.17674 2.57031C6.50682 2.04531 5.6701 1.75273 4.8115 1.75V0.4375C4.8115 0.196875 4.61463 0 4.374 0H3.499C3.25838 0 3.0615 0.196875 3.0615 0.4375V1.75H2.99314C1.25135 1.75 -0.148652 3.2457 0.0126757 5.02031C0.127519 6.28086 1.09002 7.30625 2.30408 7.66172L5.10682 8.48203C5.44861 8.5832 5.6865 8.90039 5.6865 9.25586C5.6865 9.70156 5.32557 10.0625 4.87986 10.0625H3.06697C2.73338 10.0625 2.40525 9.96133 2.13182 9.77539C1.96502 9.66328 1.7408 9.69063 1.59861 9.83008L0.647051 10.7598C0.45291 10.9484 0.480254 11.2629 0.696269 11.4297C1.36619 11.9547 2.20291 12.2473 3.0615 12.25V13.5625C3.0615 13.8031 3.25838 14 3.499 14H4.374C4.61463 14 4.8115 13.8031 4.8115 13.5625V12.2445C6.08572 12.2199 7.28064 11.4625 7.70174 10.2566C8.28963 8.57227 7.30252 6.84414 5.71932 6.38203Z" fill="#738099"/>
</svg>
