<svg width="14" height="14" viewBox="0 0 14 14" fill="none" xmlns="http://www.w3.org/2000/svg">
<path d="M13.231 8.68225L12.0286 7.9879C12.1499 7.33306 12.1499 6.66129 12.0286 6.00646L13.231 5.3121C13.3693 5.23307 13.4314 5.06936 13.3862 4.91694C13.0729 3.91211 12.5394 3.00324 11.8423 2.24679C11.735 2.13107 11.56 2.10284 11.4245 2.18187L10.2221 2.87623C9.71687 2.44155 9.13542 2.10566 8.50599 1.8855V0.499621C8.50599 0.341557 8.39591 0.203252 8.24067 0.169381C7.20478 -0.0620701 6.1435 -0.0507798 5.15842 0.169381C5.00318 0.203252 4.8931 0.341557 4.8931 0.499621V1.88833C4.26649 2.11131 3.68504 2.44719 3.17698 2.87905L1.97738 2.1847C1.83908 2.10566 1.6669 2.13107 1.55964 2.24961C0.862468 3.00324 0.329002 3.91211 0.0156969 4.91977C-0.0322868 5.07219 0.0326323 5.23589 0.170938 5.31493L1.37335 6.00928C1.25198 6.66411 1.25198 7.33589 1.37335 7.99072L0.170938 8.68507C0.0326323 8.76411 -0.0294643 8.92782 0.0156969 9.08023C0.329002 10.0851 0.862468 10.9939 1.55964 11.7504C1.6669 11.8661 1.8419 11.8943 1.97738 11.8153L3.1798 11.121C3.68504 11.5556 4.26649 11.8915 4.89592 12.1117V13.5004C4.89592 13.6584 5.006 13.7967 5.16124 13.8306C6.19713 14.0621 7.25841 14.0508 8.24349 13.8306C8.39873 13.7967 8.50881 13.6584 8.50881 13.5004V12.1117C9.13542 11.8887 9.71687 11.5528 10.2249 11.121L11.4273 11.8153C11.5657 11.8943 11.7378 11.8689 11.8451 11.7504C12.5423 10.9968 13.0757 10.0879 13.389 9.08023C13.4314 8.92499 13.3693 8.76128 13.231 8.68225ZM6.69954 9.25523C5.45479 9.25523 4.44149 8.24193 4.44149 6.99718C4.44149 5.75242 5.45479 4.73912 6.69954 4.73912C7.9443 4.73912 8.9576 5.75242 8.9576 6.99718C8.9576 8.24193 7.9443 9.25523 6.69954 9.25523Z" fill="#738099"/>
</svg>
