<svg width="18" height="14" viewBox="0 0 18 14" fill="none" xmlns="http://www.w3.org/2000/svg">
<path d="M17.0625 12.25H14.875V3.10213C14.875 2.35674 14.2863 1.74998 13.5625 1.74998H10.5V3.49998H13.125V14H17.0625C17.3043 14 17.5 13.8042 17.5 13.5625V12.6875C17.5 12.4458 17.3043 12.25 17.0625 12.25ZM8.53783 0.0275906L3.28782 1.38767C2.89817 1.48857 2.62501 1.85115 2.62501 2.26732V12.25H0.437501C0.195782 12.25 0 12.4458 0 12.6875V13.5625C0 13.8042 0.195782 14 0.437501 14H9.62502V0.907241C9.62502 0.317162 9.09017 -0.115691 8.53783 0.0275906ZM7.21876 7.87499C6.85646 7.87499 6.56251 7.48315 6.56251 6.99999C6.56251 6.51682 6.85646 6.12498 7.21876 6.12498C7.58107 6.12498 7.87502 6.51682 7.87502 6.99999C7.87502 7.48315 7.58107 7.87499 7.21876 7.87499Z" fill="#738099"/>
</svg>
