<svg width="40" height="40" viewBox="0 0 40 40" fill="none" xmlns="http://www.w3.org/2000/svg">
<path d="M20 0.625C9.30023 0.625 0.625 9.30336 0.625 20C0.625 30.7029 9.30023 39.375 20 39.375C30.6998 39.375 39.375 30.7029 39.375 20C39.375 9.30336 30.6998 0.625 20 0.625ZM20 9.21875C21.8122 9.21875 23.2812 10.6878 23.2812 12.5C23.2812 14.3122 21.8122 15.7812 20 15.7812C18.1878 15.7812 16.7188 14.3122 16.7188 12.5C16.7188 10.6878 18.1878 9.21875 20 9.21875ZM24.375 29.0625C24.375 29.5802 23.9552 30 23.4375 30H16.5625C16.0448 30 15.625 29.5802 15.625 29.0625V27.1875C15.625 26.6698 16.0448 26.25 16.5625 26.25H17.5V21.25H16.5625C16.0448 21.25 15.625 20.8302 15.625 20.3125V18.4375C15.625 17.9198 16.0448 17.5 16.5625 17.5H21.5625C22.0802 17.5 22.5 17.9198 22.5 18.4375V26.25H23.4375C23.9552 26.25 24.375 26.6698 24.375 27.1875V29.0625Z" fill="#9266CC"/>
</svg>
